<svg xmlns="http://www.w3.org/2000/svg" viewBox="0 0 512 512" role="img" aria-labelledby="desgoffe-title desgoffe-desc">
  <title id="desgoffe-title">Ville de Desgoffe logo</title>
  <desc id="desgoffe-desc">Original municipal seal for Desgoffe-sur-Semois, with a civic shield, Semois river, Ardennes pines, wheat, oak, and municipal colors.</desc>

  <defs>
    <path id="desgoffe-shield" d="M256 116C226 135 195 143 158 149V232C158 292 196 342 256 379C316 342 354 292 354 232V149C317 143 286 135 256 116Z" />
    <clipPath id="desgoffe-shield-clip">
      <use href="#desgoffe-shield" />
    </clipPath>
  </defs>

  <circle cx="256" cy="256" r="236" fill="#FDF5E6" stroke="#5D3A5D" stroke-width="10" />

  <g transform="translate(256 256) scale(1.24) translate(-256 -256)">
  <g stroke-linecap="round" stroke-linejoin="round">
    <g fill="none" stroke="#D4A574" stroke-width="7">
      <path d="M177 342C144 299 139 242 158 191" />
      <path d="M335 342C368 299 373 242 354 191" />
    </g>
    <g fill="#D4A574" stroke="#8B6508" stroke-width="2">
      <path d="M161 212C146 200 142 183 150 169C164 181 168 198 161 212Z" />
      <path d="M151 252C135 242 129 225 135 210C150 220 158 237 151 252Z" />
      <path d="M160 293C143 286 134 271 137 255C154 263 164 277 160 293Z" />
      <path d="M351 212C366 200 370 183 362 169C348 181 344 198 351 212Z" />
      <path d="M361 252C377 242 383 225 377 210C362 220 354 237 361 252Z" />
      <path d="M352 293C369 286 378 271 375 255C358 263 348 277 352 293Z" />
    </g>
    <g fill="#2D5A3D" stroke="#163D28" stroke-width="2">
      <path d="M181 197C165 191 154 177 155 160C172 166 183 181 181 197Z" />
      <path d="M172 240C154 237 141 225 139 208C157 212 170 224 172 240Z" />
      <path d="M181 282C163 282 148 271 143 255C162 256 177 266 181 282Z" />
      <path d="M331 197C347 191 358 177 357 160C340 166 329 181 331 197Z" />
      <path d="M340 240C358 237 371 225 373 208C355 212 342 224 340 240Z" />
      <path d="M331 282C349 282 364 271 369 255C350 256 335 266 331 282Z" />
    </g>
  </g>

  <use href="#desgoffe-shield" fill="#FFFAF0" stroke="#5D3A5D" stroke-width="8" />

  <g clip-path="url(#desgoffe-shield-clip)">
    <rect x="148" y="108" width="216" height="283" fill="#FFFAF0" />
    <path d="M148 156C185 144 212 131 256 150C300 131 327 144 364 156V230H148Z" fill="#2D5A3D" />
    <path d="M148 242C181 217 211 218 239 245C266 271 292 271 320 247C337 232 352 229 364 235V286C337 273 318 278 296 298C263 329 225 318 197 288C180 270 162 268 148 277Z" fill="#2F6F8F" />
    <path d="M148 294C184 277 209 287 235 309C263 334 300 333 328 309C342 297 354 292 364 293V391H148Z" fill="#D4A574" />
    <path d="M148 258C182 232 213 234 239 260C265 287 296 285 322 262C338 248 352 245 364 251" fill="none" stroke="#FDF5E6" stroke-width="9" opacity=".95" />

    <g fill="#FDF5E6" stroke="#5D3A5D" stroke-width="5">
      <path d="M215 220V174H297V220Z" />
      <path d="M233 174V145H279V174Z" />
      <path d="M225 145L256 119L287 145Z" />
      <path d="M221 220V202H291V220Z" fill="#D4A574" />
      <path d="M247 220V198C247 189 265 189 265 198V220Z" fill="#5D3A5D" stroke="none" />
      <rect x="226" y="185" width="13" height="14" rx="2" fill="#5D3A5D" stroke="none" />
      <rect x="273" y="185" width="13" height="14" rx="2" fill="#5D3A5D" stroke="none" />
      <circle cx="256" cy="159" r="8" fill="#5D3A5D" stroke="none" />
    </g>

    <g fill="#163D28">
      <path d="M193 230L213 198L233 230Z" />
      <rect x="207" y="228" width="12" height="25" />
      <path d="M289 230L309 198L329 230Z" />
      <rect x="303" y="228" width="12" height="25" />
    </g>
  </g>

  <use href="#desgoffe-shield" fill="none" stroke="#5D3A5D" stroke-width="8" />
  <use href="#desgoffe-shield" fill="none" stroke="#D4A574" stroke-width="2" />
  </g>
</svg>
