<svg xmlns="http://www.w3.org/2000/svg" viewBox="0 0 512 512" width="512" height="512">
  <rect width="100%" height="100%" fill="#FBF4E6" rx="64" ry="64"/>
  <path d="M 233 74.071 L 224.500 75.020 214.500 77.088 L 204.500 79.157 195.500 82.127 L 186.500 85.098 175.424 90.406 L 164.348 95.714 154.924 102.032 L 145.500 108.350 141.775 111.322 L 138.051 114.294 131.775 113.758 L 125.500 113.223 124.250 113.695 L 123 114.167 123 121.226 L 123 128.284 118.250 133.781 L 113.500 139.278 109.963 143.889 L 106.425 148.500 103.326 153.015 L 100.227 157.531 93.632 170.064 L 87.037 182.597 82.931 194.965 L 78.825 207.333 76.868 216.917 L 74.911 226.500 74.317 244.630 L 73.723 262.761 74.940 272.630 L 76.158 282.500 78.026 291 L 79.894 299.500 82.987 309 L 86.079 318.500 91.632 329.500 L 97.185 340.500 101.804 347.500 L 106.423 354.500 111.590 361.500 L 116.756 368.500 128.128 379.521 L 139.500 390.543 147.291 396.359 L 155.083 402.174 161.791 406.262 L 168.500 410.349 177.500 414.529 L 186.500 418.708 194.464 421.425 L 202.428 424.142 212.464 426.513 L 222.500 428.884 232.346 430.077 L 242.191 431.271 258.846 430.729 L 275.500 430.186 285.312 428.103 L 295.124 426.020 300.812 424.387 L 306.500 422.755 307.500 422.156 L 308.500 421.558 310.246 421.286 L 311.993 421.014 316.746 418.941 L 321.500 416.868 330 412.830 L 338.500 408.792 348.500 402.257 L 358.500 395.721 363 392.136 L 367.500 388.552 376.842 379.526 L 386.184 370.500 392.961 361.500 L 399.738 352.500 404.011 345.500 L 408.284 338.500 411.071 333 L 413.858 327.500 417.502 318.500 L 421.145 309.500 424.498 296.499 L 427.850 283.499 429.020 270.999 L 430.190 258.500 429.536 245.500 L 428.882 232.500 427.398 223.682 L 425.915 214.865 422.540 203.182 L 419.165 191.500 415.524 183 L 411.883 174.500 407.950 167.313 L 404.018 160.127 400.774 155.313 L 397.531 150.500 392.765 144.197 L 388 137.894 388 129.388 L 388 120.882 389 121.500 L 390 122.118 390 121.214 L 390 120.310 388.171 118.655 L 386.343 117 377.078 117 L 367.813 117 358.657 110.159 L 349.500 103.318 339.914 97.634 L 330.328 91.949 320.414 87.591 L 310.500 83.232 300.500 80.167 L 290.500 77.102 280.500 75.488 L 270.500 73.873 256 73.498 L 241.500 73.123 233 74.071 M 227.255 80.031 L 215.010 81.884 205.653 84.433 L 196.296 86.982 187.398 90.553 L 178.500 94.124 169.334 99.004 L 160.168 103.884 154.110 108.192 L 148.053 112.500 148.027 113.250 L 148 114 157.250 114.003 L 166.500 114.006 215 114.948 L 263.500 115.889 311.500 116.519 L 359.500 117.149 357.500 115.177 L 355.500 113.206 347.169 107.620 L 338.839 102.034 326.669 96.103 L 314.500 90.172 305.500 87.173 L 296.500 84.175 286.813 82.097 L 277.127 80.020 265.813 79.019 L 254.500 78.017 247 78.097 L 239.500 78.177 227.255 80.031 M 128.809 189.250 L 128.433 258.500 128.823 259.750 L 129.214 261 141.013 261 L 152.812 261 153.509 255.936 L 154.205 250.872 153.802 250.468 L 153.398 250.065 149.584 251.236 L 145.770 252.406 144.635 250.922 L 143.500 249.437 138.256 249.815 L 133.011 250.192 132.343 248.452 L 131.675 246.712 134.588 244.621 L 137.500 242.531 141.500 238.684 L 145.500 234.837 141.302 235.316 L 137.103 235.796 135.302 234.423 L 133.500 233.050 139.267 227.927 L 145.034 222.804 145.985 221.029 L 146.935 219.253 142.485 219.755 L 138.036 220.256 137.343 218.450 L 136.650 216.645 139.075 215.099 L 141.500 213.554 145.500 209.533 L 149.500 205.511 146.500 205.179 L 143.500 204.846 142.546 203.919 L 141.592 202.992 145.796 198.708 L 150 194.424 150 193.829 L 150 193.233 148 192.710 L 146 192.187 146 191.258 L 146 190.328 149.579 185.734 L 153.158 181.141 155.439 174.367 L 157.721 167.593 158.846 167.218 L 159.971 166.843 160.890 169.171 L 161.808 171.500 163.511 176.314 L 165.214 181.127 168.607 185.572 L 172 190.017 172 191.041 L 172 192.064 169.834 192.866 L 167.667 193.667 171.834 197.834 L 176 202 176 203.500 L 176 205 173 205 L 170 205 170 205.929 L 170 206.858 173.250 210.207 L 176.500 213.556 178.925 215.100 L 181.350 216.645 180.657 218.452 L 179.964 220.258 175.982 219.724 L 172 219.190 172 220.479 L 172 221.767 175.843 225.134 L 179.686 228.500 181.911 230.298 L 184.135 232.096 183.740 233.298 L 183.345 234.500 178.478 235 L 173.610 235.500 179.928 241.207 L 186.247 246.915 185.608 248.580 L 184.969 250.245 179.484 249.790 L 174 249.335 174 250.799 L 174 252.262 170.750 251.716 L 167.500 251.170 165.591 250.417 L 163.683 249.664 164.341 252.957 L 165 256.250 165 258.658 L 165 261.066 176.233 260.783 L 187.465 260.500 189.149 252.500 L 190.832 244.500 190.916 215.774 L 191 187.048 189.004 183.774 L 187.007 180.500 187.004 174.450 L 187 168.400 188.200 167.200 L 189.400 166 193.225 166 L 197.050 166 197.650 169 L 198.250 172 199 172 L 199.750 172 200.350 169 L 200.950 166 204.775 166 L 208.600 166 209.800 167.200 L 211 168.400 211 170.200 L 211 172 211.902 172 L 212.804 172 213.850 169 L 214.896 166 218.248 166 L 221.600 166 222.800 167.200 L 224 168.400 224 175.141 L 224 181.882 223 182.500 L 222 183.118 222 183.814 L 222 184.511 225.500 185.606 L 229 186.702 229.133 184.601 L 229.265 182.500 229.594 174.235 L 229.923 165.969 227.962 164.744 L 226 163.519 226 162.584 L 226 161.650 240.707 146.825 L 255.414 132 256.969 132 L 258.524 132 273.903 147.403 L 289.283 162.807 287.141 164.144 L 285 165.481 285 175.716 L 285 185.950 288.250 185.331 L 291.500 184.713 291.933 184.340 L 292.367 183.967 291.183 182.783 L 290 181.600 290 174.835 L 290 168.070 291.750 167.155 L 293.500 166.239 296.750 166.733 L 300 167.227 300 169.054 L 300 170.882 300.903 171.440 L 301.805 171.998 302.895 168.872 L 303.984 165.747 307.117 166.373 L 310.250 167 311.625 167 L 313 167 313 169.583 L 313 172.167 314.250 171.750 L 315.500 171.334 315.866 169.417 L 316.231 167.500 317.366 166.765 L 318.500 166.031 321.050 166.015 L 323.600 166 324.800 167.200 L 326 168.400 326 174.240 L 326 180.080 324 184 L 322 187.920 322 216.187 L 322 244.454 323.670 252.227 L 325.341 260 335.554 260 L 345.767 260 346.370 257.750 L 346.973 255.500 346.986 252.143 L 347 248.786 345.250 249.534 L 343.500 250.283 340.750 250.755 L 338 251.227 338 250.113 L 338 249 332.107 249 L 326.214 249 325.651 247.532 L 325.087 246.064 330.972 241.441 L 336.856 236.818 337.387 235.434 L 337.918 234.049 333.479 234.658 L 329.039 235.266 328.344 233.454 L 327.649 231.642 331.058 229.071 L 334.466 226.500 337.233 223.527 L 340 220.554 340 219.646 L 340 218.738 336.750 219.235 L 333.500 219.732 332.250 219.283 L 331 218.833 331 217.831 L 331 216.828 336.750 211.209 L 342.500 205.591 339.500 205.218 L 336.500 204.846 335.650 204.023 L 334.800 203.200 338.900 199.100 L 343 195 343 194 L 343 193 341.559 193 L 340.118 193 339.529 192.048 L 338.941 191.095 342.461 186.483 L 345.982 181.871 348.104 174.884 L 350.226 167.897 351.672 168.198 L 353.119 168.500 355.381 175.236 L 357.643 181.972 360.821 185.927 L 364 189.883 364 191.372 L 364 192.861 361.750 193.180 L 359.500 193.500 363.750 198.112 L 368 202.724 368 203.862 L 368 205 365 205 L 362 205 362 205.900 L 362 206.799 367.500 211.826 L 373 216.853 373 217.907 L 373 218.962 370.572 219.571 L 368.144 220.181 366.072 219.523 L 364 218.865 364 219.825 L 364 220.785 370.094 226.426 L 376.188 232.068 375.574 233.667 L 374.961 235.266 370.453 234.649 L 365.946 234.031 366.995 235.990 L 368.043 237.949 371.621 240.725 L 375.200 243.500 377.350 245.179 L 379.500 246.858 378.270 248.109 L 377.041 249.359 372.020 249.130 L 367 248.901 367 250.060 L 367 251.219 363.750 250.762 L 360.500 250.305 358.750 249.545 L 357 248.786 357 251.268 L 357 253.750 357.631 256.906 L 358.262 260.061 369.852 259.781 L 381.442 259.500 381.685 191.705 L 381.929 123.910 380.714 123.535 L 379.500 123.159 332 122.553 L 284.500 121.947 226 121.021 L 166.500 120.094 148.343 120.047 L 130.185 120 128.809 189.250 M 118.500 140.746 L 115.500 144.491 111.456 149.996 L 107.413 155.500 103.665 161.698 L 99.918 167.897 95.066 178.262 L 90.214 188.626 87.152 198.184 L 84.091 207.741 81.830 218.120 L 79.570 228.500 79.535 250.500 L 79.500 272.500 81.874 284 L 84.247 295.500 87.656 306 L 91.065 316.500 97.041 328.646 L 103.017 340.793 107.708 347.646 L 112.399 354.500 115.765 359 L 119.130 363.500 128.298 372.876 L 137.465 382.251 144.484 387.987 L 151.503 393.723 158.002 397.948 L 164.500 402.173 175.500 407.561 L 186.500 412.949 196.500 416.561 L 206.500 420.173 218 422.649 L 229.500 425.126 245.134 425.701 L 260.767 426.276 270.634 425.064 L 280.500 423.853 288 422.348 L 295.500 420.844 305 417.817 L 314.500 414.790 325.731 409.401 L 336.962 404.011 344.052 399.467 L 351.142 394.922 357.821 389.772 L 364.500 384.622 373.771 375.561 L 383.042 366.500 389.944 357.377 L 396.846 348.254 401.880 339.377 L 406.914 330.500 410.894 321.500 L 414.873 312.500 417.887 302 L 420.900 291.500 422.513 281.500 L 424.126 271.500 424.700 259 L 425.275 246.500 424.061 236 L 422.847 225.500 421.394 218.500 L 419.941 211.500 416.329 200.198 L 412.717 188.896 405.891 174.919 L 399.065 160.942 393.849 153.471 L 388.633 146 388.047 146 L 387.462 146 387.265 203.250 L 387.068 260.500 386.009 267.953 L 384.950 274.405 383.434 280.453 L 381.918 286.500 379.796 292 L 377.674 297.500 374.291 304.500 L 370.908 311.500 368.204 316.045 L 365.500 320.591 361.129 326.416 L 356.759 332.241 346.856 342.144 L 336.954 352.046 325.727 360.377 L 314.500 368.708 307 373.232 L 299.500 377.756 288.500 383.212 L 277.500 388.669 266.925 392.874 L 256.350 397.079 247.425 394.087 L 238.500 391.096 228.023 386.512 L 217.547 381.928 208.150 376.863 L 198.754 371.797 193.123 368.149 L 187.492 364.500 179.571 358.530 L 171.650 352.559 165.674 346.530 L 159.699 340.500 154.090 334 L 148.481 327.500 143.710 320.320 L 138.939 313.140 134.531 303.820 L 130.123 294.500 127.092 283.685 L 124.061 272.869 123.031 262.833 L 122.001 252.797 122.634 194.399 L 123.268 136 122.384 136 L 121.500 136 118.500 140.746 M 245.234 148.266 L 234 159.531 234 160.266 L 234 161 257.500 161 L 281 161 281 160.468 L 281 159.936 269.360 148.468 L 257.721 137 257.094 137 L 256.467 137 245.234 148.266 M 234 175.519 L 234 186.038 236.507 185.409 L 239.013 184.780 242.507 185.435 L 246 186.091 246 188.438 L 246 190.786 247.250 191.246 L 248.500 191.705 249.750 191.269 L 251 190.833 251 188.417 L 251 186 253 185.900 L 255 185.800 257.500 185.800 L 260 185.800 261.500 185.900 L 263 186 263 188.500 L 263 191 265.500 191 L 268 191 268 188.519 L 268 186.038 270.507 185.409 L 273.013 184.780 276.359 185.407 L 279.704 186.035 280.284 176.312 L 280.864 166.589 280.373 165.795 L 279.882 165 256.941 165 L 234 165 234 175.519 M 255.315 168.062 L 253.131 168.887 252.010 170.982 L 250.889 173.076 251.194 177.288 L 251.500 181.500 257 181.500 L 262.500 181.500 262.806 177.288 L 263.111 173.076 262.033 171.061 L 260.954 169.046 259.227 168.141 L 257.500 167.236 255.315 168.062 M 192 174.328 L 192 179.056 205.750 178.778 L 219.500 178.500 219.500 174.750 L 219.500 171 218.750 171 L 218 171 218.169 171.250 L 218.338 171.500 217.105 173.804 L 215.871 176.109 211.726 175.804 L 207.580 175.500 207.040 173.191 L 206.500 170.882 205.500 170.882 L 204.500 170.882 203.955 173.191 L 203.410 175.500 198.969 175.500 L 194.527 175.500 194.167 173.500 L 193.806 171.500 192.903 170.550 L 192 169.600 192 174.328 M 306.828 172.628 L 306.500 175.500 301.500 175.500 L 296.500 175.500 296.180 173.250 L 295.861 171 294.930 171 L 294 171 294 175.028 L 294 179.056 307.750 178.778 L 321.500 178.500 321.829 176.177 L 322.158 173.855 321.441 172.177 L 320.725 170.500 320.067 173 L 319.410 175.500 314.469 175.500 L 309.527 175.500 309.167 173.500 L 308.806 171.500 307.981 170.628 L 307.156 169.756 306.828 172.628 M 255.688 172.646 L 255 173.333 255 175.608 L 255 177.882 255.798 178.375 L 256.595 178.868 257.885 178.071 L 259.175 177.274 258.837 174.965 L 258.500 172.657 257.438 172.307 L 256.375 171.958 255.688 172.646 M 156.500 182.254 L 154.500 186.456 154.167 187.228 L 153.833 188 155.417 188 L 157 188 157 189.360 L 157 190.721 154.500 194.405 L 152 198.089 152 198.428 L 152 198.767 154.060 199.305 L 156.120 199.844 154.054 203.894 L 151.988 207.944 148.744 211.663 L 145.500 215.382 147.500 214.562 L 149.500 213.743 151.895 213.227 L 154.289 212.712 153.578 215.545 L 152.867 218.378 150.775 221.439 L 148.683 224.500 145.645 227.750 L 142.608 231 143.353 231 L 144.099 231 146.859 229.573 L 149.618 228.146 150.903 228.940 L 152.189 229.735 150.487 233.117 L 148.785 236.500 144.180 241.250 L 139.575 246 140.665 246 L 141.756 246 145.459 244.453 L 149.162 242.905 149.706 244.986 L 150.250 247.066 152.706 245.457 L 155.162 243.848 156.650 244.419 L 158.138 244.990 157.440 252.995 L 156.742 261 158.999 261 L 161.257 261 160.788 252.907 L 160.320 244.814 161.614 244.318 L 162.907 243.822 165.176 245.411 L 167.445 247 168.129 247 L 168.813 247 168.290 245 L 167.767 243 168.562 243 L 169.358 243 172.654 244.192 L 175.950 245.384 176.628 244.706 L 177.305 244.028 174.649 241.938 L 171.992 239.848 168.910 235.369 L 165.828 230.890 166.426 229.332 L 167.024 227.773 168.762 228.321 L 170.500 228.869 173 229.569 L 175.500 230.268 171.359 225.884 L 167.217 221.500 165.568 218.221 L 163.918 214.941 164.580 213.870 L 165.243 212.799 168.307 213.411 L 171.371 214.024 169.291 211.762 L 167.210 209.500 165.109 206 L 163.007 202.500 163.004 200.750 L 163 199 164.970 199 L 166.940 199 164.470 195.360 L 162 191.721 162 189.444 L 162 187.167 163.046 186.818 L 164.091 186.470 161.796 182.243 L 159.500 178.016 159 178.034 L 158.500 178.052 156.500 182.254 M 349.029 183.170 L 346.855 187.339 348.386 188.196 L 349.917 189.053 349.296 190.776 L 348.675 192.500 346.837 195.154 L 345 197.809 345 198.404 L 345 199 346.500 199 L 348 199 347.996 200.750 L 347.993 202.500 345.894 206 L 343.796 209.500 341.148 212.404 L 338.500 215.309 340.500 214.526 L 342.500 213.743 344.750 213.255 L 347 212.767 347 214.188 L 347 215.608 344.060 220.244 L 341.120 224.880 338.977 227.023 L 336.833 229.167 337.233 229.566 L 337.632 229.965 340.778 228.778 L 343.924 227.590 344.641 228.308 L 345.358 229.025 343.691 232.522 L 342.023 236.020 337.761 240.676 L 333.500 245.332 336 244.585 L 338.500 243.839 340.750 243.303 L 343 242.767 343 244.383 L 343 246 343.777 246 L 344.555 246 346.779 244.442 L 349.004 242.884 350.062 243.538 L 351.121 244.193 350.431 252.096 L 349.742 260 352.019 260 L 354.296 260 353.682 252.038 L 353.068 244.076 354.078 243.452 L 355.088 242.828 357.509 244.414 L 359.930 246 360.465 246 L 361 246 361 244.383 L 361 242.767 363.250 243.303 L 365.500 243.839 367.750 244.536 L 370 245.233 370 244.117 L 370 243 369.093 243 L 368.186 243 364.160 238.191 L 360.134 233.383 359.422 230.547 L 358.711 227.712 361.105 228.227 L 363.500 228.743 365.500 229.526 L 367.500 230.309 364.890 227.404 L 362.279 224.500 359.640 220.518 L 357 216.536 357 214.643 L 357 212.750 360.118 213.374 L 363.235 213.997 360.566 210.498 L 357.898 206.999 356.401 203.418 L 354.905 199.838 356.900 199.316 L 358.895 198.794 356.448 194.917 L 354 191.040 354 189.603 L 354 188.167 355.174 187.775 L 356.348 187.384 354.424 183.218 L 352.500 179.052 351.851 179.026 L 351.202 179 349.029 183.170 M 205 183.500 L 205 184 205.500 184 L 206 184 206 183.500 L 206 183 205.500 183 L 205 183 205 183.500 M 195.667 188.667 L 195 189.333 195 215.442 L 195 241.550 200.250 241.431 L 205.500 241.313 210.750 241.156 L 216 241 216 214.500 L 216 188 206.167 188 L 196.333 188 195.667 188.667 M 297.667 188.667 L 297 189.333 297 215.103 L 297 240.873 300.250 241.187 L 303.500 241.500 310.750 241.171 L 318 240.842 318 214.421 L 318 188 308.167 188 L 298.333 188 297.667 188.667 M 221.658 189.675 L 221 190.333 221 194.679 L 221 199.025 256.750 198.763 L 292.500 198.500 292.807 194.250 L 293.115 190 291.127 190 L 289.139 190 288.820 192.250 L 288.500 194.500 282.545 194.500 L 276.590 194.500 276 192 L 275.410 189.500 274 189.500 L 272.590 189.500 272 192 L 271.410 194.500 265.455 194.500 L 259.500 194.500 259.184 191.750 L 258.867 189 257 189 L 255.133 189 254.816 191.750 L 254.500 194.500 248.500 194.500 L 242.500 194.500 242.178 191.691 L 241.856 188.881 240.222 189.196 L 238.588 189.511 238.003 192.005 L 237.417 194.500 231.209 194.798 L 225 195.095 225 193.170 L 225 191.245 223.658 190.131 L 222.316 189.017 221.658 189.675 M 203.626 194.533 L 203 196.164 203 200.459 L 203 204.755 204.542 206.035 L 206.085 207.315 207.097 206.303 L 208.109 205.291 207.804 199.405 L 207.500 193.519 205.876 193.211 L 204.252 192.902 203.626 194.533 M 306.212 194.188 L 305 195.400 305 200.078 L 305 204.755 306.542 206.035 L 308.085 207.315 309.097 206.303 L 310.109 205.291 309.804 199.475 L 309.500 193.658 308.462 193.317 L 307.425 192.975 306.212 194.188 M 220.896 210.250 L 220.792 217.500 220.495 229 L 220.198 240.500 221.766 249.500 L 223.335 258.500 224.318 259.784 L 225.302 261.069 234.901 260.784 L 244.500 260.500 245 249.326 L 245.500 238.151 247.897 235.605 L 250.294 233.058 253.490 232.003 L 256.686 230.949 260.497 232.224 L 264.309 233.500 266.203 236.054 L 268.098 238.608 268.481 245.054 L 268.864 251.500 268.932 255.785 L 269 260.070 279.233 259.785 L 289.466 259.500 291.149 251.500 L 292.832 243.500 292.916 223.250 L 293 203 257 203 L 221 203 220.896 210.250 M 231 212 L 229 214 229 219.893 L 229 225.786 230.582 226.393 L 232.164 227 235 227 L 237.836 227 239.418 226.393 L 241 225.786 241 220.067 L 241 214.349 238.686 212.174 L 236.371 210 234.686 210 L 233 210 231 212 M 274.453 212.052 L 272.595 214.105 272.368 219.051 L 272.141 223.998 273.506 225.363 L 274.871 226.729 279.035 226.432 L 283.198 226.135 283.604 225.730 L 284.010 225.324 284.255 219.767 L 284.500 214.211 282.595 212.106 L 280.690 210 278.500 210 L 276.310 210 274.453 212.052 M 233.723 214.611 L 233 215.333 233 218.608 L 233 221.882 234.067 222.541 L 235.133 223.200 235.485 222.848 L 235.837 222.496 236.463 219.998 L 237.089 217.500 235.767 215.694 L 234.445 213.888 233.723 214.611 M 277.639 214.694 L 277 215.333 277 218.667 L 277 222 278.500 222 L 280 222 280 218.559 L 280 215.118 279.139 214.586 L 278.279 214.054 277.639 214.694 M 250.557 238.223 L 249 240.445 249 250.789 L 249 261.133 251.750 260.816 L 254.500 260.500 254.781 248.250 L 255.062 236 253.587 236 L 252.113 236 250.557 238.223 M 259 248 L 259 260 261.500 260 L 264 260 264.088 258.750 L 264.176 257.500 264.634 251.500 L 265.091 245.500 264.506 242.282 L 263.921 239.064 262.389 237.532 L 260.857 236 259.929 236 L 259 236 259 248 M 296.559 246.156 L 296.109 247.500 295.060 251.500 L 294.011 255.500 294.006 257.750 L 294 260 307.500 260 L 321 260 321 258.576 L 321 257.153 319.821 251.826 L 318.642 246.500 318.472 246.235 L 318.303 245.970 307.656 245.391 L 297.009 244.812 296.559 246.156 M 193.138 251.667 L 192 257.334 192 259.167 L 192 261 205.441 261 L 218.882 261 219.486 260.023 L 220.090 259.046 219.145 255.273 L 218.201 251.500 217.581 248.750 L 216.962 246 205.619 246 L 194.276 246 193.138 251.667 M 231.500 265 L 208.500 265.500 208.230 286.250 L 207.959 307 209.270 307 L 210.580 307 216.535 305.449 L 222.491 303.898 228.719 300.415 L 234.947 296.932 242.420 295.020 L 249.893 293.109 256.197 292.962 L 262.500 292.815 266.500 293.493 L 270.500 294.171 277.500 297.181 L 284.500 300.191 290.897 302.596 L 297.294 305 301.147 305 L 305 305 305 285.033 L 305 265.066 279.750 264.783 L 254.500 264.500 231.500 265 M 317.250 264.744 L 309 265.081 309 285.040 L 309 305 311.250 304.976 L 313.500 304.951 318 303.929 L 322.500 302.907 332.229 298.376 L 341.958 293.845 349.969 292.447 L 357.980 291.048 363.127 292.024 L 368.273 293 370.953 293 L 373.633 293 375.813 285.750 L 378.993 278.500 380.482 272 L 381.970 265.500 381.985 264.750 L 382 264 354.250 264.204 L 326.500 264.407 317.250 264.744 M 130.622 265.712 L 130 266.333 130.003 268.917 L 130.005 271.500 132.539 281 L 135.074 290.500 136.264 293.823 L 137.455 297.146 139.977 296.596 L 142.500 296.046 151.507 295.388 L 160.515 294.730 165.537 295.807 L 170.559 296.884 179.030 300.886 L 187.500 304.887 191.500 305.769 L 195.500 306.652 199.500 306.576 L 203.500 306.500 203.770 285.730 L 204.041 264.959 167.642 265.025 L 131.244 265.090 130.622 265.712 M 345.135 297.511 L 339.769 299.018 333.560 302.430 L 327.351 305.842 321.841 307.444 L 316.330 309.046 307.915 309.184 L 299.500 309.322 296 308.570 L 292.500 307.818 288.198 306.403 L 283.895 304.988 278.198 302.056 L 272.500 299.124 266.125 297.995 L 259.750 296.867 254.125 297.114 L 248.500 297.362 242.818 299.069 L 237.136 300.776 231.818 303.798 L 226.500 306.821 220.085 308.911 L 213.670 311 204.016 311 L 194.363 311 189.025 309.415 L 183.686 307.829 178.593 305.516 L 173.500 303.203 169.677 301.622 L 165.853 300.041 159.527 299.393 L 153.201 298.744 147.842 299.414 L 142.483 300.084 141.155 300.904 L 139.827 301.725 142.532 307.063 L 145.237 312.400 147.811 316.450 L 150.385 320.500 151.884 321.750 L 153.382 323 158.510 323 L 163.637 323 169.068 324.609 L 174.500 326.219 181.625 329.596 L 188.751 332.973 195.263 333.895 L 201.775 334.817 210.059 333.816 L 218.343 332.814 228.540 327.981 L 238.736 323.148 242.618 322.132 L 246.500 321.116 253.560 320.447 L 260.619 319.779 266.560 320.986 L 272.500 322.192 283.500 326.997 L 294.500 331.802 300.500 332.452 L 306.500 333.101 314 332.044 L 321.500 330.987 331.754 326.032 L 342.008 321.077 347.754 320.044 L 353.500 319.011 357.102 318.488 L 360.705 317.965 365.992 308.422 L 371.278 298.878 370.203 297.803 L 369.128 296.728 359.814 296.366 L 350.500 296.005 345.135 297.511 M 346.772 324.080 L 343.044 324.960 333.272 329.857 L 323.500 334.755 317.750 336.037 L 312 337.318 312 350.159 L 312 363 312.913 363 L 313.827 363 322.134 356.841 L 330.441 350.681 337.971 343.591 L 345.500 336.500 350.750 330.387 L 356 324.274 356 323.637 L 356 323 353.250 323.100 L 350.500 323.201 346.772 324.080 M 248 325.142 L 242.500 326.051 231.500 331.428 L 220.500 336.804 212.725 338.101 L 204.950 339.398 205.225 354.397 L 205.500 369.395 213.500 373.684 L 221.500 377.973 235.500 383.887 L 249.500 389.801 253.153 390.793 L 256.805 391.785 269.153 386.416 L 281.500 381.048 289.500 376.953 L 297.500 372.857 302.775 369.702 L 308.051 366.547 307.775 352.023 L 307.500 337.500 301 336.847 L 294.500 336.194 287.828 333.671 L 281.156 331.148 278.828 329.687 L 276.500 328.227 271.500 326.700 L 266.500 325.174 260 324.703 L 253.500 324.233 248 325.142 M 156 328.012 L 156 329.023 166.250 339.269 L 176.500 349.514 187 357.063 L 197.500 364.611 199.250 365.274 L 201 365.937 201 352.597 L 201 339.258 195.750 338.581 L 190.500 337.905 187 336.722 L 183.500 335.540 179.494 333.374 L 175.487 331.208 169.079 329.104 L 162.670 327 159.335 327 L 156 327 156 328.012 M 344.008 376.490 L 342.790 377.958 340.961 376.979 L 339.131 376 338.566 376 L 338 376 338 378.393 L 338 380.786 336.500 381.362 L 335 381.937 335 382.852 L 335 383.767 336.935 384.273 L 338.871 384.779 338.319 386.889 L 337.767 389 339.324 389 L 340.882 389 341.502 387.997 L 342.121 386.995 343.995 387.997 L 345.869 389 346.543 389 L 347.217 389 346.618 386.614 L 346.019 384.228 348.260 383.608 L 350.500 382.987 348.094 381.122 L 345.688 379.256 346.300 377.660 L 346.913 376.064 346.070 375.543 L 345.227 375.022 344.008 376.490 M 165.432 380.316 L 164.823 381.904 165.512 383.019 L 166.201 384.135 164.101 384.684 L 162 385.233 162 386.210 L 162 387.187 164 387.710 L 166 388.233 166 390.617 L 166 393 166.800 393 L 167.600 393 168.800 391.800 L 170 390.600 171.200 391.800 L 172.400 393 173.200 393 L 174 393 174 390.550 L 174 388.099 175.750 387.050 L 177.500 386 175.750 384.950 L 174 383.901 174 381.950 L 174 380 172.559 380 L 171.118 380 170.460 381.065 L 169.801 382.130 167.922 380.429 L 166.042 378.728 165.432 380.316 M 312.037 388.055 L 307.574 390.093 307.343 390.324 L 307.112 390.555 310.574 397.433 L 314.036 404.312 313.407 406.292 L 312.779 408.272 315.639 407.559 L 318.500 406.846 321.842 405.265 L 325.184 403.685 325.699 402.342 L 326.214 401 325.536 399.250 L 324.857 397.500 323.463 399.500 L 322.068 401.500 320.995 402.750 L 319.921 404 318.939 404 L 317.957 404 316.785 401.428 L 315.614 398.857 316.966 398.021 L 318.319 397.185 319.659 397.700 L 321 398.214 320.985 396.857 L 320.969 395.500 320.061 394.064 L 319.152 392.629 317.589 393.926 L 316.025 395.224 314.513 394.643 L 313 394.063 313 392.138 L 313 390.214 314.404 389.675 L 315.807 389.137 318.004 389.711 L 320.202 390.286 319.839 388.404 L 319.477 386.523 317.989 386.270 L 316.500 386.018 312.037 388.055 M 193 390.367 L 193 391.733 190.828 397.117 L 188.656 402.500 187.167 404.256 L 185.679 406.012 186.089 406.286 L 186.500 406.559 190.284 408.280 L 194.068 410 196.584 410 L 199.099 410 201.855 408.575 L 204.611 407.150 205.805 404.528 L 207 401.906 207 399.588 L 207 397.270 204.908 394.610 L 202.815 391.950 199.285 390.475 L 195.756 389 197.378 389 L 193 389 193 390.367 M 297.575 393.560 L 293.650 395.016 293.183 395.484 L 292.715 395.952 293.863 397.335 L 295.011 398.718 296.495 403.609 L 297.978 408.500 297.989 411.269 L 298 414.038 300.750 413.390 L 303.500 412.742 304.492 411.829 L 305.483 410.917 304.391 410.208 L 303.299 409.500 302.046 407.123 L 300.794 404.746 302.056 403.965 L 303.319 403.185 304.659 403.700 L 306 404.214 306 402.166 L 306 400.118 304.933 399.459 L 303.867 398.800 302.631 400.490 L 301.395 402.181 300.115 400.638 L 298.835 399.096 299.204 397.298 L 299.572 395.500 302.841 395.653 L 306.109 395.807 305.795 394.153 L 305.480 392.500 303.490 392.302 L 301.500 392.104 297.575 393.560 M 194.623 399.083 L 191.985 405.167 192.551 406.083 L 193.118 407 196.074 407 L 199.029 407 201.011 403.750 L 202.993 400.500 202.996 398.405 L 203 396.310 201.171 394.655 L 199.343 393 198.302 393 L 197.261 393 194.623 399.083 M 211.558 395.775 L 211 396.333 211 398.801 L 211 401.268 209.827 405.384 L 208.655 409.500 207.327 411.079 L 206 412.657 206 413.180 L 206 413.703 212.605 415.491 L 219.210 417.279 220.090 415.889 L 220.969 414.500 220.985 413.250 L 221 412 220.434 412 L 219.869 412 217.934 413.035 L 216 414.070 214.090 413.048 L 212.180 412.026 212.711 409.998 L 213.241 407.969 214.165 407.398 L 215.088 406.828 216.500 408 L 217.912 409.172 218.956 408.527 L 220 407.882 220 405.953 L 220 404.024 217.753 404.262 L 215.506 404.500 215.183 402.246 L 214.860 399.991 216.586 399.329 L 218.312 398.666 220.032 400.791 L 221.752 402.915 222.376 402.291 L 223 401.667 223 399.911 L 223 398.155 219.750 397.173 L 216.500 396.190 214.308 395.704 L 212.116 395.218 211.558 395.775 M 284 397.133 L 280.500 398.086 279.137 398.555 L 277.775 399.024 278.790 400.262 L 279.804 401.500 281.013 406 L 282.221 410.500 282.173 414.253 L 282.125 418.007 284.813 417.374 L 287.500 416.742 288.292 416.029 L 289.085 415.315 287.542 414.035 L 286 412.755 286 410.269 L 286 407.783 288.500 408.411 L 291 409.038 291 407.078 L 291 405.118 289.956 404.473 L 288.912 403.828 287.432 405.056 L 285.952 406.285 285.557 405.890 L 285.163 405.496 284.507 402.884 L 283.851 400.272 285.784 399.767 L 287.716 399.262 289.433 400.222 L 291.150 401.183 291.656 400.677 L 292.162 400.171 291.046 398.086 L 289.930 396 288.715 396.090 L 287.500 396.180 284 397.133 M 228.223 400.557 L 226 402.113 226 404.938 L 226 407.763 229.500 410.432 L 233 413.102 233 414.444 L 233 415.786 231.256 416.455 L 229.511 417.125 227.448 414.537 L 225.384 411.949 224.692 412.641 L 224 413.333 224 415.131 L 224 416.930 225.934 417.965 L 227.869 419 230.212 419 L 232.555 419 234.777 417.443 L 237 415.887 237 413.607 L 237 411.328 232.933 407.677 L 228.866 404.026 229.492 403.013 L 230.118 402 232.009 402 L 233.901 402 234.932 403.750 L 235.963 405.500 236.976 404 L 237.988 402.500 235.883 400.750 L 233.778 399 232.112 399 L 230.445 399 228.223 400.557 M 262.306 402.415 L 259.500 404.829 259.576 410.067 L 259.653 415.304 262.382 417.652 L 265.112 420 267.605 420 L 270.099 420 273.083 418.457 L 276.067 416.914 276.654 413.981 L 277.240 411.048 277.240 410.500 L 277.240 409.952 276.660 407.052 L 276.081 404.153 273.852 402.077 L 271.623 400 268.367 400 L 265.112 400 262.306 402.415 M 243.206 403.480 L 240.258 405.961 239.664 408.931 L 239.070 411.901 240.104 414.870 L 241.139 417.838 244.567 419.465 L 247.995 421.092 251.577 420.419 L 255.160 419.747 255.493 418.624 L 255.827 417.500 256.388 414.250 L 256.950 411 253.475 411 L 250 411 250 411.941 L 250 412.882 250.906 413.442 L 251.812 414.002 251.289 416.001 L 250.767 418 248.955 418 L 247.143 418 245.571 416.429 L 244 414.857 244 410.929 L 244 407 246 405 L 248 403 249.492 403 L 250.983 403 252.232 405 L 253.481 407 254.741 407 L 256 407 256 405.035 L 256 403.070 254.066 402.035 L 252.131 401 249.142 401 L 246.153 401 243.206 403.480 M 265.545 403.344 L 263.813 404.610 263.712 408.183 L 263.611 411.757 265.328 414.378 L 267.046 417 268.823 417 L 270.600 417 271.800 415.800 L 273 414.600 273 411.234 L 273 407.869 271.977 405.957 L 270.954 404.046 269.115 403.062 L 267.276 402.077 265.545 403.344" stroke="none" fill="#800020" fill-rule="evenodd"/>
</svg>